<?xml version="1.0" encoding="UTF-8" standalone="no"?>
<!-- Generator: Gravit.io -->
<svg xmlns="http://www.w3.org/2000/svg" xmlns:xlink="http://www.w3.org/1999/xlink" style="isolation:isolate" viewBox="668 297 1330 3505" width="1330pt" height="3505pt"><defs><clipPath id="_clipPath_DjqTGla02TcnHVKrrQvqwlxcGsRhI9DG"><rect width="2832" height="4048"/></clipPath></defs><g clip-path="url(#_clipPath_DjqTGla02TcnHVKrrQvqwlxcGsRhI9DG)"><path d=" M 1762 1414 L 1002 1414 L 1002 556 L 1002 556 L 1002 556 L 1998 556 L 1998 501 L 1998 501 L 1448.431 297 L 1002 297 L 765 297 L 668 297 L 668 556 L 765 556 L 765 1414 L 668 1414 L 668 1681 L 765 1681 L 765 3065 L 1002 3065 L 1002 1681 L 1762 1681 L 1762 2267 L 1669 2267 L 1669 2267 L 1669 3802 L 1998 3802 L 1998 2267 L 1903 2267 L 1903 1681 L 1998 1681 L 1998 1414 L 1903 1414 L 1903 1312 L 1998 1312 L 1998 1192 L 1669 1192 L 1669 1192 L 1669 1192 L 1669 1312 L 1762 1312 L 1762 1414 Z " fill-rule="evenodd" fill="rgb(235,235,235)"/></g></svg>